<svg width="14" height="17" viewBox="0 0 14 17" fill="none" xmlns="http://www.w3.org/2000/svg">
<path fill-rule="evenodd" clip-rule="evenodd" d="M5.54355 15.188C5.93561 15.6247 6.43894 15.8647 6.96118 15.8647H6.96194C7.48645 15.8647 7.99205 15.6247 8.38487 15.1873C8.59528 14.9549 8.95404 14.936 9.1864 15.1456C9.41952 15.3553 9.43844 15.7148 9.22879 15.9472C8.61723 16.6261 7.81267 17 6.96194 17H6.96042C6.11196 16.9992 5.30892 16.6253 4.69963 15.9464C4.48997 15.7141 4.5089 15.3545 4.74201 15.1456C4.97513 14.9352 5.33389 14.9542 5.54355 15.188ZM6.99887 0.727112C10.3632 0.727112 12.6232 3.34742 12.6232 5.79441C12.6232 7.0531 12.9434 7.5867 13.2832 8.15284C13.6193 8.71142 14 9.34569 14 10.5446C13.7358 13.6077 10.538 13.8574 6.99887 13.8574C3.45971 13.8574 0.261143 13.6077 1.00183e-05 10.593C-0.00225051 9.34569 0.378459 8.71142 0.714513 8.15284L0.83315 7.95315C1.12525 7.45111 1.37451 6.90502 1.37451 5.79441C1.37451 3.34742 3.63455 0.727112 6.99887 0.727112ZM6.99887 1.86243C4.35358 1.86243 2.50983 3.93476 2.50983 5.79441C2.50983 7.36796 2.07311 8.09532 1.6871 8.73715C1.37754 9.25259 1.13307 9.65979 1.13307 10.5446C1.25947 11.9721 2.20178 12.7221 6.99887 12.7221C11.7695 12.7221 12.7413 11.9388 12.867 10.4954C12.8647 9.65979 12.6202 9.25259 12.3106 8.73715C11.9246 8.09532 11.4879 7.36796 11.4879 5.79441C11.4879 3.93476 9.64416 1.86243 6.99887 1.86243Z" fill="white"/>
</svg>
