<svg width="34" height="40" viewBox="0 0 34 40" fill="none" xmlns="http://www.w3.org/2000/svg">
<path d="M33 33.3334V6.66671C33 5.25222 32.4381 3.89566 31.4379 2.89547C30.4377 1.89528 29.0812 1.33337 27.6667 1.33337H6.33333C4.91885 1.33337 3.56229 1.89528 2.5621 2.89547C1.5619 3.89566 1 5.25222 1 6.66671V33.3334C1 34.7479 1.5619 36.1044 2.5621 37.1046C3.56229 38.1048 4.91885 38.6667 6.33333 38.6667H27.6667C29.0812 38.6667 30.4377 38.1048 31.4379 37.1046C32.4381 36.1044 33 34.7479 33 33.3334ZM14.3333 12H27.6667H14.3333ZM6.33333 12H9H6.33333ZM14.3333 20H27.6667H14.3333ZM6.33333 20H9H6.33333ZM14.3333 28H27.6667H14.3333ZM6.33333 28H9H6.33333Z" fill="url(#paint0_linear_6_297)"/>
<path d="M14.3333 12H27.6667M6.33333 12H9M14.3333 20H27.6667M6.33333 20H9M14.3333 28H27.6667M6.33333 28H9M33 33.3334V6.66671C33 5.25222 32.4381 3.89566 31.4379 2.89547C30.4377 1.89528 29.0812 1.33337 27.6667 1.33337H6.33333C4.91885 1.33337 3.56229 1.89528 2.5621 2.89547C1.5619 3.89566 1 5.25222 1 6.66671V33.3334C1 34.7479 1.5619 36.1044 2.5621 37.1046C3.56229 38.1048 4.91885 38.6667 6.33333 38.6667H27.6667C29.0812 38.6667 30.4377 38.1048 31.4379 37.1046C32.4381 36.1044 33 34.7479 33 33.3334Z" stroke="#230C49" stroke-width="2" stroke-linecap="round" stroke-linejoin="round"/>
<defs>
<linearGradient id="paint0_linear_6_297" x1="0.225806" y1="1.33337" x2="40.9425" y2="20.2209" gradientUnits="userSpaceOnUse">
<stop stop-color="#D9D9D9"/>
<stop offset="0.0001" stop-color="#8379F3"/>
<stop offset="1" stop-color="#F987E7"/>
</linearGradient>
</defs>
</svg>
