<svg width="10" height="12" viewBox="0 0 10 12" fill="none" xmlns="http://www.w3.org/2000/svg">
<path d="M0.369217 4.86902C0.42572 4.81102 0.639067 4.56302 0.837802 4.35902C2.00293 3.07601 5.0424 0.976004 6.63325 0.335001C6.87485 0.232001 7.48566 0.0140001 7.81201 0C8.12473 0 8.42283 0.0720003 8.70729 0.218001C9.0619 0.422002 9.34636 0.743003 9.50223 1.122C9.60257 1.38501 9.75844 2.17201 9.75844 2.18601C9.91431 3.04701 10 4.44602 10 5.99202C10 7.46503 9.91431 8.80704 9.78669 9.68104C9.77208 9.69504 9.61621 10.673 9.44573 11.008C9.13301 11.62 8.5222 12 7.86852 12H7.81201C7.38629 11.9851 6.49101 11.605 6.49101 11.591C4.98589 10.949 2.01657 8.95204 0.823189 7.62503C0.823189 7.62503 0.487094 7.28403 0.340966 7.07103C0.113006 6.76503 0 6.38603 0 6.00703C0 5.58402 0.127619 5.19002 0.369217 4.86902Z" fill="white"/>
</svg>
