<svg width="26" height="28" viewBox="0 0 26 28" fill="none" xmlns="http://www.w3.org/2000/svg">
<path d="M17.7095 3.15734e-06C18.3039 -0.00139297 18.7739 0.460376 18.7752 1.07607L18.7766 2.12554C22.6331 2.42779 25.1806 5.05567 25.1848 9.08565L25.2 20.8817C25.2055 25.2755 22.4451 27.979 18.0205 27.986L7.21264 28C2.81568 28.0056 0.0207525 25.2378 0.0152234 20.8314L9.27835e-06 9.17381C-0.00551045 5.11724 2.45215 2.49636 6.30865 2.14233L6.30726 1.09286C6.30588 0.477167 6.76203 0.0139993 7.37022 0.0139993C7.97842 0.0126 8.43456 0.474369 8.43594 1.09006L8.43732 2.06957L16.6479 2.05837L16.6466 1.07887C16.6452 0.463174 17.1013 0.00140563 17.7095 3.15734e-06ZM18.2735 19.8686H18.2597C17.6238 19.884 17.1138 20.4172 17.1276 21.0609C17.129 21.7045 17.6418 22.2349 18.2776 22.2489C18.9259 22.2475 19.4512 21.7143 19.4498 21.0567C19.4498 20.399 18.9231 19.8686 18.2735 19.8686ZM6.88367 19.87C6.24783 19.898 5.75021 20.4312 5.75159 21.0748C5.78062 21.7185 6.30588 22.2223 6.94172 22.1929C7.56512 22.1649 8.06135 21.6318 8.03232 20.9881C8.0185 20.3584 7.50568 19.8686 6.88367 19.87ZM12.5786 19.863C11.9427 19.8924 11.4465 20.4242 11.4465 21.0678C11.4755 21.7115 12.0008 22.2139 12.6366 22.1859C13.2586 22.1565 13.7563 21.6248 13.7272 20.9797C13.7134 20.3514 13.2006 19.8617 12.5786 19.863ZM6.87676 14.8326C6.24092 14.8606 5.74469 15.3937 5.74606 16.0374C5.77371 16.681 6.30035 17.1848 6.93619 17.1554C7.55821 17.1274 8.05444 16.5943 8.02541 15.9506C8.01159 15.3209 7.50015 14.8312 6.87676 14.8326ZM12.573 14.7836C11.9372 14.8116 11.4396 15.3447 11.441 15.9884C11.4686 16.6321 11.9953 17.1344 12.6311 17.1064C13.2531 17.077 13.7493 16.5453 13.7217 15.9016C13.7065 15.272 13.1951 14.7822 12.573 14.7836ZM18.2679 14.7906C17.6321 14.8046 17.1345 15.3223 17.1359 15.966V15.9814C17.1497 16.6251 17.675 17.1134 18.3122 17.0994C18.9342 17.084 19.4304 16.5509 19.4166 15.9072C19.3876 15.2915 18.8886 14.7892 18.2679 14.7906ZM16.6507 4.21329L8.44009 4.22449L8.44147 5.35652C8.44147 5.95962 7.98671 6.43538 7.37851 6.43538C6.77032 6.43678 6.31279 5.96242 6.31279 5.35932L6.31141 4.28186C3.61601 4.55192 2.12455 6.13593 2.12869 9.17101L2.13008 9.60619L23.0575 9.57821V9.08845C22.998 6.07996 21.4886 4.50155 18.7794 4.26647L18.7808 5.34393C18.7808 5.94563 18.3122 6.42279 17.7178 6.42279C17.1096 6.42419 16.6521 5.94842 16.6521 5.34673L16.6507 4.21329Z" fill="white"/>
</svg>
