<svg width="15" height="16" viewBox="0 0 15 16" fill="none" xmlns="http://www.w3.org/2000/svg">
<path d="M7.66667 14.6666C11.3487 14.6666 14.3333 11.6819 14.3333 7.99992C14.3333 4.31792 11.3487 1.33325 7.66667 1.33325C3.98467 1.33325 1 4.31792 1 7.99992C1 11.6819 3.98467 14.6666 7.66667 14.6666Z" stroke="white" stroke-width="1.5" stroke-linecap="round" stroke-linejoin="round"/>
<path d="M8.66667 6.11318C8.36506 6.00691 8.04237 5.97451 7.72566 6.0187C7.40895 6.06289 7.10745 6.18237 6.84645 6.36714C6.58545 6.5519 6.37256 6.79656 6.22563 7.08059C6.07871 7.36461 6.00203 7.67973 6.00203 7.99951C6.00203 8.31929 6.07871 8.63441 6.22563 8.91844C6.37256 9.20246 6.58545 9.44712 6.84645 9.63188C7.10745 9.81665 7.40895 9.93614 7.72566 9.98033C8.04237 10.0245 8.36506 9.99211 8.66667 9.88585" stroke="white" stroke-width="1.5" stroke-linecap="round" stroke-linejoin="round"/>
</svg>
