<svg width="30" height="30" viewBox="0 0 30 30" fill="none" xmlns="http://www.w3.org/2000/svg">
<circle cx="15" cy="15" r="15" fill="white"/>
<path d="M20.6985 10.8295C19.7258 10.4391 18.6995 10.1605 17.6451 10.0006C17.6355 9.99916 17.6257 10.0004 17.617 10.004C17.6082 10.0077 17.601 10.0137 17.5963 10.0211C17.4641 10.2261 17.3179 10.4942 17.2157 10.7041C16.0791 10.5532 14.923 10.5532 13.7863 10.7041C13.6724 10.4702 13.5434 10.2422 13.4001 10.0211C13.3953 10.0137 13.3881 10.0079 13.3794 10.0042C13.3707 10.0006 13.3609 9.99928 13.3514 10.0006C12.2967 10.1596 11.2701 10.4384 10.2979 10.8295C10.2896 10.8323 10.2827 10.8375 10.2783 10.8443C8.3339 13.3853 7.80047 15.864 8.06203 18.3115C8.06297 18.323 8.07141 18.3344 8.08172 18.3418C9.21395 19.0754 10.4804 19.6354 11.827 19.9981C11.8365 20.0007 11.8467 20.0006 11.8562 19.9978C11.8656 19.995 11.8738 19.9897 11.8795 19.9825C12.1682 19.6381 12.4251 19.2749 12.6464 18.8928C12.651 18.885 12.6525 18.876 12.6509 18.8673C12.6492 18.8586 12.6443 18.8505 12.637 18.8444C12.6321 18.8404 12.6264 18.8374 12.6201 18.8354C12.2162 18.6997 11.825 18.5365 11.4501 18.3476C11.4397 18.3424 11.4319 18.3339 11.4284 18.3238C11.4249 18.3137 11.426 18.3028 11.4314 18.2934C11.4346 18.2873 11.4394 18.282 11.4454 18.2779C11.5242 18.2262 11.6029 18.1721 11.6779 18.118C11.6846 18.1133 11.6925 18.1103 11.7009 18.1093C11.7094 18.1083 11.7179 18.1093 11.7257 18.1122C14.181 19.0929 16.8388 19.0929 19.2641 18.1122C19.2722 18.1092 19.2811 18.1081 19.2899 18.1091C19.2986 18.1101 19.3069 18.1132 19.3138 18.118C19.3888 18.1721 19.4675 18.2262 19.5463 18.2779C19.5527 18.2819 19.5578 18.2873 19.5612 18.2936C19.5646 18.2998 19.5662 18.3067 19.5658 18.3136C19.5655 18.3205 19.5631 18.3272 19.5591 18.3331C19.555 18.3391 19.5493 18.344 19.5425 18.3476C19.1685 18.5383 18.7768 18.7012 18.3716 18.8346C18.3651 18.8367 18.3593 18.8399 18.3544 18.8442C18.3496 18.8484 18.3458 18.8536 18.3435 18.8592C18.3413 18.8647 18.3405 18.8705 18.3409 18.8763C18.3414 18.882 18.3432 18.8877 18.3463 18.8928C18.5713 19.2741 18.8291 19.6381 19.1122 19.9825C19.1179 19.9897 19.1261 19.995 19.1356 19.9978C19.145 20.0006 19.1552 20.0007 19.1647 19.9981C20.5136 19.6365 21.7821 19.0764 22.9156 18.3418C22.9213 18.3384 22.926 18.3339 22.9294 18.3286C22.9328 18.3234 22.9349 18.3175 22.9353 18.3115C23.2484 15.4819 22.4113 13.0237 20.7172 10.8451C20.7155 10.8415 20.713 10.8383 20.7097 10.8356C20.7065 10.8329 20.7027 10.8308 20.6985 10.8295ZM13.0129 16.8208C12.2732 16.8208 11.6648 16.2272 11.6648 15.4991C11.6648 14.7702 12.262 14.1765 13.0129 14.1765C13.7695 14.1765 14.3723 14.7751 14.361 15.4991C14.361 16.2272 13.7638 16.8208 13.0129 16.8208ZM17.9966 16.8208C17.2579 16.8208 16.6485 16.2272 16.6485 15.4991C16.6485 14.7702 17.2457 14.1765 17.9966 14.1765C18.7532 14.1765 19.3569 14.7751 19.3447 15.4991C19.3447 16.2272 18.7532 16.8208 17.9966 16.8208Z" fill="#1D004C"/>
</svg>
