<svg width="25" height="24" viewBox="0 0 25 24" fill="none" xmlns="http://www.w3.org/2000/svg">
<path d="M18.6737 0.5C20.35 0.5 21.9625 1.17722 23.1487 2.39239C24.3362 3.605 25 5.24056 25 6.95278V17.0472C25 20.6122 22.1625 23.5 18.6737 23.5H6.325C2.83625 23.5 0 20.6122 0 17.0472V6.95278C0 3.38778 2.82375 0.5 6.325 0.5H18.6737ZM20.0875 7.14444C19.825 7.13039 19.575 7.22111 19.3862 7.4L13.75 12C13.025 12.6146 11.9862 12.6146 11.25 12L5.625 7.4C5.23625 7.10611 4.69875 7.14444 4.375 7.48944C4.0375 7.83444 4 8.38389 4.28625 8.76722L4.45 8.93333L10.1375 13.4694C10.8375 14.0317 11.6863 14.3383 12.575 14.3383C13.4613 14.3383 14.325 14.0317 15.0238 13.4694L20.6625 8.85667L20.7625 8.75444C21.0613 8.38389 21.0613 7.84722 20.7488 7.47667C20.575 7.28628 20.3363 7.17 20.0875 7.14444Z" fill="white"/>
</svg>
