<svg width="18" height="17" viewBox="0 0 18 17" fill="none" xmlns="http://www.w3.org/2000/svg">
<path d="M1.40762 8.61514C0.766964 8.94788 0.793543 9.43519 1.4652 9.69831L3.45526 10.4778C4.12748 10.742 5.14466 10.5978 5.71443 10.1577L14.3563 3.41089C14.9244 2.96852 14.9853 3.03375 14.492 3.5567L7.6602 10.7957C7.16517 11.317 7.31136 11.9573 7.98578 12.2155L8.2189 12.3054C8.89333 12.5636 9.99246 12.9972 10.6625 13.2669L12.8696 14.1565C13.5401 14.4262 14.2566 14.1083 14.4471 13.4176L17.811 1.17713C18.0009 0.486444 17.6321 0.193177 16.9914 0.525364L1.40762 8.61514Z" fill="#16395C"/>
<path d="M6.86887 16.6293C6.82956 16.746 8.22991 14.6219 8.22991 14.6219C8.62582 14.0233 8.40101 13.3091 7.73212 13.0383L6.20496 12.4194C5.53607 12.1486 5.21547 12.4665 5.49233 13.1282C5.49233 13.1282 6.90929 16.5092 6.86887 16.6293Z" fill="#16395C"/>
</svg>
