<svg width="25" height="25" viewBox="0 0 25 25" fill="none" xmlns="http://www.w3.org/2000/svg">
<rect width="25" height="25" rx="12.5" fill="white"/>
<path d="M20 15.933C20 18.481 18.481 20 15.933 20H15.1C14.715 20 14.4 19.685 14.4 19.3V15.261C14.4 15.072 14.554 14.911 14.743 14.911L15.975 14.89C16.073 14.883 16.157 14.813 16.178 14.715L16.423 13.378C16.444 13.252 16.346 13.133 16.213 13.133L14.722 13.154C14.526 13.154 14.372 13 14.365 12.811L14.337 11.096C14.337 10.984 14.428 10.886 14.547 10.886L16.227 10.858C16.346 10.858 16.437 10.767 16.437 10.648L16.409 8.96799C16.409 8.84899 16.318 8.758 16.199 8.758L14.309 8.78601C13.147 8.80701 12.223 9.759 12.244 10.921L12.279 12.846C12.286 13.042 12.132 13.196 11.936 13.203L11.096 13.217C10.977 13.217 10.886 13.308 10.886 13.427L10.907 14.757C10.907 14.876 10.998 14.967 11.117 14.967L11.957 14.953C12.153 14.953 12.307 15.107 12.314 15.296L12.377 19.286C12.384 19.678 12.069 20 11.677 20H10.067C7.519 20 6 18.481 6 15.926V10.067C6 7.519 7.519 6 10.067 6H15.933C18.481 6 20 7.519 20 10.067V15.933Z" fill="#140236"/>
</svg>
