<svg width="30" height="30" viewBox="0 0 30 30" fill="none" xmlns="http://www.w3.org/2000/svg">
<circle cx="15" cy="15" r="15" fill="white"/>
<path fill-rule="evenodd" clip-rule="evenodd" d="M12.408 7.045C13.2077 7.00818 13.4627 7 15.5 7C17.5373 7 17.7923 7.00886 18.5914 7.045C19.3905 7.08114 19.9359 7.20864 20.4132 7.39341C20.913 7.58227 21.3664 7.8775 21.7414 8.25932C22.1232 8.63364 22.4177 9.08636 22.6059 9.58682C22.7914 10.0641 22.9182 10.6095 22.955 11.4073C22.9918 12.2084 23 12.4634 23 14.5C23 16.5373 22.9911 16.7923 22.955 17.592C22.9189 18.3898 22.7914 18.9352 22.6059 19.4125C22.4177 19.913 22.1227 20.3665 21.7414 20.7414C21.3664 21.1232 20.913 21.4177 20.4132 21.6059C19.9359 21.7914 19.3905 21.9182 18.5927 21.955C17.7923 21.9918 17.5373 22 15.5 22C13.4627 22 13.2077 21.9911 12.408 21.955C11.6102 21.9189 11.0648 21.7914 10.5875 21.6059C10.087 21.4177 9.63351 21.1227 9.25864 20.7414C8.87708 20.3668 8.58181 19.9136 8.39341 19.4132C8.20864 18.9359 8.08182 18.3905 8.045 17.5927C8.00818 16.7916 8 16.5366 8 14.5C8 12.4627 8.00886 12.2077 8.045 11.4086C8.08114 10.6095 8.20864 10.0641 8.39341 9.58682C8.58208 9.08642 8.87758 8.63317 9.25932 8.25864C9.63366 7.87716 10.0867 7.58189 10.5868 7.39341C11.0641 7.20864 11.6095 7.08182 12.4073 7.045H12.408ZM18.5307 8.395C17.7398 8.35886 17.5025 8.35136 15.5 8.35136C13.4975 8.35136 13.2602 8.35886 12.4693 8.395C11.7377 8.42841 11.3409 8.55045 11.0764 8.65341C10.7266 8.78977 10.4764 8.95136 10.2139 9.21386C9.96503 9.45594 9.77353 9.75065 9.65341 10.0764C9.55045 10.3409 9.42841 10.7377 9.395 11.4693C9.35886 12.2602 9.35136 12.4975 9.35136 14.5C9.35136 16.5025 9.35886 16.7398 9.395 17.5307C9.42841 18.2623 9.55045 18.6591 9.65341 18.9236C9.77341 19.2489 9.965 19.5441 10.2139 19.7861C10.4559 20.035 10.7511 20.2266 11.0764 20.3466C11.3409 20.4495 11.7377 20.5716 12.4693 20.605C13.2602 20.6411 13.4968 20.6486 15.5 20.6486C17.5032 20.6486 17.7398 20.6411 18.5307 20.605C19.2623 20.5716 19.6591 20.4495 19.9236 20.3466C20.2734 20.2102 20.5236 20.0486 20.7861 19.7861C21.035 19.5441 21.2266 19.2489 21.3466 18.9236C21.4495 18.6591 21.5716 18.2623 21.605 17.5307C21.6411 16.7398 21.6486 16.5025 21.6486 14.5C21.6486 12.4975 21.6411 12.2602 21.605 11.4693C21.5716 10.7377 21.4495 10.3409 21.3466 10.0764C21.2102 9.72659 21.0486 9.47636 20.7861 9.21386C20.544 8.96505 20.2493 8.77355 19.9236 8.65341C19.6591 8.55045 19.2623 8.42841 18.5307 8.395ZM14.542 16.812C15.077 17.0347 15.6728 17.0648 16.2275 16.8971C16.7821 16.7294 17.2614 16.3743 17.5834 15.8924C17.9053 15.4106 18.05 14.832 17.9928 14.2553C17.9355 13.6786 17.6798 13.1398 17.2693 12.7307C17.0077 12.4692 16.6913 12.269 16.343 12.1444C15.9946 12.0199 15.623 11.9741 15.2549 12.0104C14.8867 12.0467 14.5312 12.1642 14.214 12.3544C13.8967 12.5446 13.6255 12.8028 13.42 13.1104C13.2145 13.4179 13.0797 13.7672 13.0254 14.1332C12.971 14.4991 12.9985 14.8725 13.1058 15.2265C13.2131 15.5805 13.3976 15.9063 13.6459 16.1805C13.8943 16.4547 14.2003 16.6704 14.542 16.812ZM12.7741 11.7741C13.1321 11.4161 13.557 11.1322 14.0247 10.9384C14.4925 10.7447 14.9938 10.645 15.5 10.645C16.0062 10.645 16.5075 10.7447 16.9753 10.9384C17.443 11.1322 17.8679 11.4161 18.2259 11.7741C18.5839 12.1321 18.8678 12.557 19.0616 13.0247C19.2553 13.4925 19.355 13.9938 19.355 14.5C19.355 15.0062 19.2553 15.5075 19.0616 15.9753C18.8678 16.443 18.5839 16.8679 18.2259 17.2259C17.503 17.9489 16.5224 18.355 15.5 18.355C14.4776 18.355 13.497 17.9489 12.7741 17.2259C12.0511 16.503 11.645 15.5224 11.645 14.5C11.645 13.4776 12.0511 12.497 12.7741 11.7741ZM20.21 11.2191C20.2987 11.1354 20.3697 11.0348 20.4188 10.9232C20.468 10.8115 20.4942 10.6912 20.496 10.5693C20.4977 10.4473 20.475 10.3263 20.4292 10.2133C20.3833 10.1003 20.3153 9.99762 20.2291 9.91139C20.1428 9.82516 20.0402 9.75711 19.9272 9.71126C19.8142 9.66542 19.6931 9.64271 19.5712 9.64449C19.4492 9.64627 19.3289 9.67249 19.2173 9.72161C19.1057 9.77073 19.005 9.84175 18.9214 9.93045C18.7586 10.103 18.6695 10.3321 18.673 10.5693C18.6764 10.8064 18.7722 11.0329 18.9399 11.2006C19.1076 11.3683 19.334 11.464 19.5712 11.4675C19.8083 11.4709 20.0375 11.3818 20.21 11.2191Z" fill="#1D004C"/>
</svg>
