<svg width="39" height="34" viewBox="0 0 39 34" fill="none" xmlns="http://www.w3.org/2000/svg">
<path d="M25.7244 26.1538L30.2276 34H27.2272L22.724 26.1538H16.2916L11.7884 34H8.788L13.2912 26.1538H5.2C4.85522 26.1538 4.52456 26.0161 4.28076 25.7708C4.03696 25.5256 3.9 25.193 3.9 24.8462V2.61538H1.3C0.955218 2.61538 0.624558 2.47761 0.380761 2.23237C0.136964 1.98713 0 1.65451 0 1.30769C0 0.960871 0.136964 0.628254 0.380761 0.383014C0.624558 0.137775 0.955218 0 1.3 0H37.7C38.0448 0 38.3754 0.137775 38.6192 0.383014C38.863 0.628254 39 0.960871 39 1.30769C39 1.65451 38.863 1.98713 38.6192 2.23237C38.3754 2.47761 38.0448 2.61538 37.7 2.61538H35.1V24.8462C35.1 25.193 34.963 25.5256 34.7192 25.7708C34.4754 26.0161 34.1448 26.1538 33.8 26.1538H25.7244ZM32.5 2.61538H6.5V23.5385H32.5V2.61538ZM13 13.0769C13.3448 13.0769 13.6754 13.2147 13.9192 13.4599C14.163 13.7052 14.3 14.0378 14.3 14.3846V17C14.3 17.3468 14.163 17.6794 13.9192 17.9247C13.6754 18.1699 13.3448 18.3077 13 18.3077C12.6552 18.3077 12.3246 18.1699 12.0808 17.9247C11.837 17.6794 11.7 17.3468 11.7 17V14.3846C11.7 14.0378 11.837 13.7052 12.0808 13.4599C12.3246 13.2147 12.6552 13.0769 13 13.0769ZM19.5 10.4615C19.8448 10.4615 20.1754 10.5993 20.4192 10.8446C20.663 11.0898 20.8 11.4224 20.8 11.7692V17C20.8 17.3468 20.663 17.6794 20.4192 17.9247C20.1754 18.1699 19.8448 18.3077 19.5 18.3077C19.1552 18.3077 18.8246 18.1699 18.5808 17.9247C18.337 17.6794 18.2 17.3468 18.2 17V11.7692C18.2 11.4224 18.337 11.0898 18.5808 10.8446C18.8246 10.5993 19.1552 10.4615 19.5 10.4615ZM26 7.84615C26.3448 7.84615 26.6754 7.98393 26.9192 8.22917C27.163 8.47441 27.3 8.80702 27.3 9.15385V17C27.3 17.3468 27.163 17.6794 26.9192 17.9247C26.6754 18.1699 26.3448 18.3077 26 18.3077C25.6552 18.3077 25.3246 18.1699 25.0808 17.9247C24.837 17.6794 24.7 17.3468 24.7 17V9.15385C24.7 8.80702 24.837 8.47441 25.0808 8.22917C25.3246 7.98393 25.6552 7.84615 26 7.84615Z" fill="url(#paint0_linear_6_318)"/>
<defs>
<linearGradient id="paint0_linear_6_318" x1="-0.943548" y1="2.6689e-08" x2="42.584" y2="27.0209" gradientUnits="userSpaceOnUse">
<stop stop-color="#D9D9D9"/>
<stop offset="0.0001" stop-color="#8379F3"/>
<stop offset="1" stop-color="#F987E7"/>
</linearGradient>
</defs>
</svg>
