<svg width="25" height="25" viewBox="0 0 25 25" fill="none" xmlns="http://www.w3.org/2000/svg">
<rect width="25" height="25" rx="12.5" fill="white"/>
<path d="M10.5461 16.3485H10.27C8.06135 16.3485 6.95703 15.7964 6.95703 13.0356V10.2748C6.95703 8.06618 8.06135 6.96186 10.27 6.96186H14.6872C16.8959 6.96186 18.0002 8.06618 18.0002 10.2748V13.0356C18.0002 15.2442 16.8959 16.3485 14.6872 16.3485H14.4112C14.24 16.3485 14.0743 16.4314 13.9694 16.5694L13.1412 17.6737C12.7768 18.1596 12.1804 18.1596 11.816 17.6737L10.9878 16.5694C10.8994 16.4479 10.6951 16.3485 10.5461 16.3485Z" stroke="#1D004C" stroke-width="0.906187" stroke-miterlimit="10" stroke-linecap="round" stroke-linejoin="round"/>
<path d="M14.6855 11.9313H14.6907" stroke="#1D004C" stroke-width="1.20825" stroke-linecap="round" stroke-linejoin="round"/>
<path d="M12.4766 11.9313H12.4818" stroke="#1D004C" stroke-width="1.20825" stroke-linecap="round" stroke-linejoin="round"/>
<path d="M10.2676 11.9313H10.2728" stroke="#1D004C" stroke-width="1.20825" stroke-linecap="round" stroke-linejoin="round"/>
</svg>
