<svg width="24" height="24" viewBox="0 0 24 24" fill="none" xmlns="http://www.w3.org/2000/svg">
<path d="M20.0002 10.999H22.0002C22.0002 5.869 18.1272 2 12.9902 2V4C17.0522 4 20.0002 6.943 20.0002 10.999Z" fill="white"/>
<path d="M13.0003 8C15.1033 8 16.0003 8.897 16.0003 11H18.0003C18.0003 7.775 16.2253 6 13.0003 6V8ZM16.4223 13.443C16.2301 13.2684 15.9776 13.1752 15.7181 13.1832C15.4585 13.1913 15.2123 13.2998 15.0313 13.486L12.6383 15.947C12.0623 15.837 10.9043 15.476 9.71228 14.287C8.52028 13.094 8.15928 11.933 8.05228 11.361L10.5113 8.967C10.6977 8.78613 10.8064 8.53982 10.8144 8.28021C10.8225 8.02059 10.7292 7.76804 10.5543 7.576L6.85928 3.513C6.68432 3.32036 6.44116 3.2035 6.18143 3.18726C5.92171 3.17101 5.66588 3.25666 5.46828 3.426L3.29828 5.287C3.12539 5.46051 3.0222 5.69145 3.00828 5.936C2.99328 6.186 2.70728 12.108 7.29928 16.702C11.3053 20.707 16.3233 21 17.7053 21C17.9073 21 18.0313 20.994 18.0643 20.992C18.3088 20.9783 18.5396 20.8747 18.7123 20.701L20.5723 18.53C20.7417 18.3325 20.8276 18.0768 20.8115 17.817C20.7954 17.5573 20.6788 17.3141 20.4863 17.139L16.4223 13.443Z" fill="white"/>
</svg>
