<svg width="25" height="25" viewBox="0 0 25 25" fill="none" xmlns="http://www.w3.org/2000/svg">
<rect width="25" height="25" rx="12.5" fill="white"/>
<path d="M6.49153 19C6.36133 19 6.23761 18.9479 6.14647 18.8568C6.02278 18.7331 5.97073 18.5509 6.0163 18.3817L6.83658 15.3161C6.28973 14.3008 6.00327 13.1553 6.00327 11.9967C6.00327 8.13715 9.14115 5 13.0016 5C16.8621 5 20 8.13715 20 11.9967C20 15.8563 16.8621 18.9935 13.0016 18.9935C11.8233 18.9935 10.671 18.7006 9.64245 18.1409L6.62174 18.9805C6.57617 18.9935 6.5371 19 6.49153 19ZM9.70753 17.132C9.79216 17.132 9.8768 17.1581 9.95492 17.1972C10.8728 17.7374 11.9275 18.0237 13.0016 18.0237C16.3218 18.0237 19.0235 15.3226 19.0235 12.0032C19.0235 8.68388 16.3218 5.98281 13.0016 5.98281C9.68149 5.98281 6.97979 8.68388 6.97979 12.0032C6.97979 13.0641 7.25972 14.099 7.78703 15.0102C7.85214 15.1209 7.87168 15.2576 7.83913 15.3812L7.18812 17.8154L9.58383 17.1516C9.6229 17.1385 9.66847 17.132 9.70753 17.132Z" fill="#1D004C"/>
<path d="M14.9027 16C14.4722 16 14.0277 15.9029 13.5625 15.7017C13.125 15.5145 12.6875 15.2648 12.2638 14.9526C11.8472 14.6474 11.4375 14.3006 11.0625 13.9261C10.6875 13.5446 10.3403 13.1423 10.0347 12.7261C9.72221 12.2891 9.47221 11.8591 9.29166 11.436C9.09721 10.9782 9 10.5274 9 10.0973C9 9.79212 9.05554 9.5008 9.15971 9.23029C9.27082 8.94591 9.45138 8.68926 9.68749 8.4673C10.1319 8.03032 10.7708 7.87081 11.2778 8.11357C11.4514 8.18987 11.5972 8.31472 11.7084 8.48119L12.5138 9.61177C12.5972 9.72275 12.6597 9.84067 12.7084 9.95858C12.7639 10.0973 12.7986 10.236 12.7986 10.3678C12.7986 10.5482 12.75 10.7285 12.6527 10.888C12.5902 10.9921 12.5 11.1169 12.3819 11.2348L12.2916 11.332C12.3333 11.3874 12.3819 11.4568 12.4583 11.54C12.6041 11.7065 12.7638 11.8868 12.9375 12.0603C13.1111 12.2267 13.2847 12.3932 13.4583 12.5388C13.5416 12.6082 13.6111 12.6637 13.6667 12.6984L13.7638 12.6013C13.8888 12.4764 14.0139 12.3793 14.1389 12.3169C14.3681 12.1712 14.7222 12.1365 15.0347 12.2683C15.1458 12.31 15.2569 12.3724 15.3749 12.4556L16.5347 13.2741C16.6944 13.3851 16.8194 13.5377 16.9027 13.7111C16.9722 13.8845 17 14.0371 17 14.1966C17 14.4047 16.9513 14.6058 16.861 14.8C16.7708 14.9804 16.6666 15.1399 16.5416 15.2856C16.3194 15.5283 16.0625 15.7087 15.7847 15.8266C15.507 15.9445 15.2083 16 14.9027 16ZM10.7708 9.04994C10.7291 9.04994 10.5903 9.04994 10.4167 9.22335C10.2847 9.3482 10.1944 9.48 10.1319 9.62566C10.0694 9.77132 10.0417 9.93779 10.0417 10.1043C10.0417 10.3956 10.1111 10.7077 10.25 11.0406C10.3958 11.3874 10.6111 11.7551 10.875 12.1227C11.1458 12.4903 11.4514 12.8579 11.7917 13.1978C12.132 13.5307 12.493 13.8428 12.868 14.1203C13.2291 14.3839 13.5972 14.592 13.9653 14.7515C14.4931 14.9804 14.9791 15.0359 15.3749 14.8694C15.5138 14.8139 15.6388 14.7168 15.7638 14.592C15.8263 14.5226 15.875 14.4532 15.9167 14.3631C15.9375 14.3145 15.9513 14.259 15.9513 14.2105C15.9513 14.1966 15.9513 14.1758 15.9305 14.1342L14.7708 13.3296C14.7222 13.2949 14.6736 13.2671 14.6319 13.2533C14.6041 13.2671 14.5625 13.288 14.4861 13.3643L14.2222 13.6278C14.0209 13.829 13.7014 13.8845 13.4445 13.7943L13.3195 13.7388C13.1597 13.6556 12.9791 13.5307 12.7777 13.3573C12.5833 13.1908 12.3959 13.0174 12.1945 12.8232C12 12.6221 11.8264 12.4348 11.6598 12.2406C11.4792 12.0256 11.3542 11.8522 11.2708 11.7065L11.1945 11.5262C11.1736 11.4568 11.1667 11.3805 11.1667 11.3111C11.1667 11.1169 11.2361 10.9435 11.3681 10.8048L11.632 10.5343C11.7084 10.458 11.7361 10.4164 11.75 10.3886C11.7292 10.3401 11.7014 10.2985 11.6667 10.2499L10.8541 9.10545L10.7708 9.04994Z" fill="#1D004C"/>
</svg>
