<svg width="37" height="42" viewBox="0 0 37 42" fill="none" xmlns="http://www.w3.org/2000/svg">
<path d="M7.92857 0C6.475 0 5.28571 1.18125 5.28571 2.625V5.25H2.64286C1.18929 5.25 0 6.43125 0 7.875V34.125C0 35.5687 1.18929 36.75 2.64286 36.75H5.28571V39.375C5.28571 40.8187 6.475 42 7.92857 42C9.38214 42 10.5714 40.8187 10.5714 39.375V36.75H13.2143C14.6679 36.75 15.8571 35.5687 15.8571 34.125V7.875C15.8571 6.43125 14.6679 5.25 13.2143 5.25H10.5714V2.625C10.5714 1.18125 9.38214 0 7.92857 0ZM34.3571 10.5H31.7143V2.625C31.7143 1.18125 30.525 0 29.0714 0C27.6179 0 26.4286 1.18125 26.4286 2.625V10.5H23.7857C22.3321 10.5 21.1429 11.6812 21.1429 13.125V26.25C21.1429 27.6938 22.3321 28.875 23.7857 28.875H26.4286V39.375C26.4286 40.8187 27.6179 42 29.0714 42C30.525 42 31.7143 40.8187 31.7143 39.375V28.875H34.3571C35.8107 28.875 37 27.6938 37 26.25V13.125C37 11.6812 35.8107 10.5 34.3571 10.5Z" fill="url(#paint0_linear_6_319)"/>
<defs>
<linearGradient id="paint0_linear_6_319" x1="-0.895161" y1="3.29688e-08" x2="45.7185" y2="22.2237" gradientUnits="userSpaceOnUse">
<stop stop-color="#D9D9D9"/>
<stop offset="0.0001" stop-color="#8379F3"/>
<stop offset="1" stop-color="#F987E7"/>
</linearGradient>
</defs>
</svg>
