<svg width="45" height="45" viewBox="0 0 45 45" fill="none" xmlns="http://www.w3.org/2000/svg">
<path d="M19.5 0.333374C30.264 0.333374 39 9.06937 39 19.8334C39 30.5974 30.264 39.3334 19.5 39.3334C8.736 39.3334 0 30.5974 0 19.8334C0 9.06937 8.736 0.333374 19.5 0.333374ZM19.5 35C27.8785 35 34.6667 28.2119 34.6667 19.8334C34.6667 11.4549 27.8785 4.66671 19.5 4.66671C11.1215 4.66671 4.33333 11.4549 4.33333 19.8334C4.33333 28.2119 11.1215 35 19.5 35ZM37.8842 35.1539L44.0137 41.2812L40.9478 44.347L34.8205 38.2175L37.8842 35.1539Z" fill="url(#paint0_linear_6_296)"/>
<defs>
<linearGradient id="paint0_linear_6_296" x1="-1.06485" y1="0.333374" x2="51.5721" y2="28.82" gradientUnits="userSpaceOnUse">
<stop stop-color="#D9D9D9"/>
<stop offset="0.0001" stop-color="#8379F3"/>
<stop offset="1" stop-color="#F987E7"/>
</linearGradient>
</defs>
</svg>
