<svg width="14" height="15" viewBox="0 0 14 15" fill="none" xmlns="http://www.w3.org/2000/svg">
<path fill-rule="evenodd" clip-rule="evenodd" d="M6.72827 0.342133C10.4382 0.342133 13.4558 3.3598 13.4558 7.06971C13.4558 8.82003 12.7841 10.4164 11.6849 11.6145L13.8478 13.7729C14.0503 13.9753 14.051 14.3028 13.8485 14.5052C13.7477 14.6075 13.6143 14.6579 13.4817 14.6579C13.3497 14.6579 13.2171 14.6075 13.1155 14.5066L10.9265 12.3237C9.775 13.2459 8.31495 13.798 6.72827 13.798C3.01836 13.798 0 10.7796 0 7.06971C0 3.3598 3.01836 0.342133 6.72827 0.342133ZM6.72827 1.37842C3.5897 1.37842 1.03629 3.93114 1.03629 7.06971C1.03629 10.2083 3.5897 12.7617 6.72827 12.7617C9.86615 12.7617 12.4196 10.2083 12.4196 7.06971C12.4196 3.93114 9.86615 1.37842 6.72827 1.37842Z" fill="#9F9F9F"/>
</svg>
