<svg width="23" height="15" viewBox="0 0 23 15" fill="none" xmlns="http://www.w3.org/2000/svg">
<path fill-rule="evenodd" clip-rule="evenodd" d="M14.7246 1.15526C14.1744 1.20347 13.7675 1.68855 13.8157 2.23873C13.8639 2.78891 14.349 3.19583 14.8992 3.14763L18.3024 2.84943L15.1312 6.85457L7.76685 4.74936L7.11366 4.56264L6.69941 5.10109L0.706875 12.8903C0.370113 13.3281 0.451965 13.9559 0.889697 14.2927C1.32743 14.6294 1.95528 14.5476 2.29204 14.1099L7.87033 6.85906L15.2249 8.96148L15.8684 9.14542L16.2838 8.62075L19.973 3.96129L20.7366 6.75008C20.8825 7.28275 21.4325 7.59634 21.9652 7.45049C22.4979 7.30465 22.8115 6.75459 22.6656 6.22191L21.3452 1.39941L21.1248 0.594461L20.2934 0.667309L14.7246 1.15526Z" fill="#24FF01"/>
</svg>
