<svg width="18" height="15" viewBox="0 0 18 15" fill="none" xmlns="http://www.w3.org/2000/svg">
<path d="M15.7139 4.03817C15.7249 4.18917 15.7249 4.34017 15.7249 4.49217C15.7249 9.09717 12.2189 14.4042 5.81194 14.4042C3.83794 14.4042 2.00394 13.8322 0.460938 12.8402C0.741937 12.8722 1.01194 12.8822 1.30294 12.8822C2.93194 12.8822 4.42994 12.3322 5.62794 11.3942C4.09594 11.3622 2.81294 10.3582 2.37094 8.97717C2.58594 9.00917 2.80194 9.03117 3.02694 9.03117C3.34094 9.03117 3.65394 8.98817 3.94494 8.91317C2.34894 8.58917 1.15094 7.18717 1.15094 5.49417C1.15094 5.48317 1.15094 5.46117 1.15094 5.45117C1.61494 5.70917 2.15394 5.87117 2.72594 5.89317C1.78794 5.26717 1.17294 4.19917 1.17294 2.99217C1.17294 2.34517 1.34594 1.75117 1.64794 1.23317C3.36294 3.34817 5.94094 4.72917 8.83194 4.87917C8.77694 4.62017 8.74494 4.35017 8.74494 4.08017C8.74494 2.16117 10.2989 0.597168 12.2289 0.597168C13.2319 0.597168 14.1379 1.01717 14.7749 1.69717C15.5619 1.54617 16.3159 1.25517 16.9859 0.856168C16.7269 1.66517 16.1769 2.34517 15.4539 2.77517C16.1559 2.70017 16.8349 2.50617 17.4609 2.23617C16.9859 2.92617 16.3929 3.54217 15.7139 4.03817Z" fill="white"/>
</svg>
