<svg width="28" height="26" viewBox="0 0 28 26" fill="none" xmlns="http://www.w3.org/2000/svg">
<path d="M20.3218 0.399994C25.1502 0.399994 28 3.17842 28 7.93452H22.0764V7.98305C19.3273 7.98305 17.0987 10.1559 17.0987 12.8362C17.0987 15.5165 19.3273 17.6894 22.0764 17.6894H28V18.1261C28 22.8216 25.1502 25.6 20.3218 25.6H7.67822C2.84978 25.6 0 22.8216 0 18.1261V7.87385C0 3.17842 2.84978 0.399994 7.67822 0.399994H20.3218ZM26.9547 10.0214C27.532 10.0214 28 10.4777 28 11.0405V14.5833C27.9933 15.1435 27.5292 15.5959 26.9547 15.6025H22.1884C20.7967 15.6208 19.5797 14.6917 19.264 13.37C19.1059 12.5496 19.3278 11.703 19.8703 11.0571C20.4128 10.4112 21.2203 10.0321 22.0764 10.0214H26.9547ZM22.7484 11.6593H22.288C22.0053 11.6561 21.7331 11.7633 21.532 11.957C21.3309 12.1508 21.2178 12.415 21.2178 12.6906C21.2177 13.2689 21.6949 13.7395 22.288 13.7462H22.7484C23.3395 13.7462 23.8187 13.279 23.8187 12.7027C23.8187 12.1265 23.3395 11.6593 22.7484 11.6593ZM14.5351 5.84766H6.63289C6.04665 5.84762 5.56948 6.30743 5.56267 6.87895C5.56267 7.45722 6.03981 7.92787 6.63289 7.93452H14.5351C15.1262 7.93452 15.6053 7.46736 15.6053 6.89109C15.6053 6.31482 15.1262 5.84766 14.5351 5.84766Z" fill="white"/>
</svg>
