<svg width="15" height="17" viewBox="0 0 15 17" fill="none" xmlns="http://www.w3.org/2000/svg">
<path fill-rule="evenodd" clip-rule="evenodd" d="M3.19766 0C3.39866 0.588 3.60666 1.186 3.81466 1.774C4.11866 2.656 4.30866 3.32 4.39466 3.785V6.356H5.34266V3.785L6.49066 0H5.52266L4.87766 2.495L4.20466 0H3.19766ZM7.76166 6.422C8.19866 6.422 8.53066 6.261 8.76766 5.938C8.94866 5.701 9.03266 5.321 9.03266 4.818V3.158C9.03266 2.655 8.94866 2.285 8.76766 2.048C8.52966 1.727 8.19766 1.565 7.76166 1.565C7.33366 1.565 7.00166 1.726 6.76666 2.048C6.58566 2.286 6.50066 2.656 6.50066 3.159V4.819C6.50066 5.322 6.58566 5.692 6.76666 5.939C7.00166 6.261 7.33366 6.422 7.76166 6.422ZM7.35366 2.988C7.35366 2.552 7.48666 2.334 7.76166 2.334C8.04666 2.334 8.16966 2.552 8.16966 2.988V4.98C8.16966 5.417 8.04666 5.644 7.76166 5.644C7.48666 5.644 7.35366 5.416 7.35366 4.98V2.988ZM9.73566 5.36C9.73566 5.701 9.76266 5.928 9.81066 6.071C9.89566 6.309 10.0947 6.422 10.3697 6.422C10.6847 6.422 11.0067 6.232 11.3477 5.834V6.356H12.2107V1.622H11.3477V5.236C11.1577 5.511 10.9777 5.644 10.8077 5.644C10.6937 5.644 10.6277 5.569 10.6087 5.436C10.5987 5.416 10.5987 5.303 10.5987 5.103V1.622H9.73566V5.36ZM13.0937 11.811V12.247H12.2397V11.811C12.2397 11.384 12.3827 11.165 12.6667 11.165C12.9507 11.166 13.0937 11.384 13.0937 11.811ZM14.7437 8.785C14.5727 8.035 13.9557 7.485 13.2257 7.4C11.4797 7.21 9.71466 7.21 7.95966 7.21C6.20466 7.21 4.43966 7.21 2.70366 7.4C1.96566 7.485 1.35766 8.035 1.17766 8.785C0.940664 9.847 0.930664 11.005 0.930664 12.105C0.930664 13.196 0.930664 14.362 1.17766 15.425C1.34866 16.175 1.96566 16.725 2.69566 16.801C4.44066 17 6.20566 17 7.96066 17C9.71566 17 11.4807 17 13.2267 16.801C13.9557 16.725 14.5637 16.175 14.7447 15.425C14.9817 14.363 14.9917 13.196 14.9917 12.105L14.9917 12.091V12.091C14.9907 10.9952 14.9896 9.84249 14.7437 8.785ZM3.92966 9.743H4.94366V8.851H1.98366V9.743H2.98066V15.141H3.92966V9.743ZM7.50566 15.141H6.66066V14.629C6.31866 15.018 5.99666 15.208 5.69266 15.208C5.41866 15.208 5.21866 15.094 5.14266 14.857C5.09466 14.715 5.06666 14.496 5.06666 14.165V10.456H5.91166V13.909C5.91166 14.109 5.91166 14.213 5.92066 14.242C5.94066 14.374 6.00666 14.441 6.11966 14.441C6.29166 14.441 6.47166 14.309 6.66066 14.043V10.457H7.50566V15.141ZM10.6457 14.685C10.7117 14.486 10.7317 14.174 10.7317 13.737V11.868C10.7317 11.431 10.7117 11.119 10.6457 10.929C10.5417 10.578 10.3037 10.398 9.97166 10.398C9.65866 10.398 9.36366 10.568 9.08866 10.91V8.851H8.24566V15.141H9.08866V14.685C9.37366 15.036 9.66866 15.207 9.97166 15.207C10.3037 15.207 10.5417 15.027 10.6457 14.685ZM13.9377 12.959H12.2397V13.784C12.2397 14.221 12.3827 14.438 12.6767 14.438C12.8857 14.438 13.0087 14.325 13.0567 14.097C13.0657 14.05 13.0757 13.86 13.0757 13.518H13.9387V13.642C13.9387 13.917 13.9387 14.107 13.9197 14.192C13.8997 14.381 13.8237 14.552 13.7207 14.704C13.4917 15.036 13.1417 15.207 12.6967 15.207C12.2507 15.207 11.9177 15.046 11.6717 14.723C11.4917 14.495 11.3967 14.125 11.3967 13.622V11.981C11.3967 11.478 11.4827 11.118 11.6627 10.88C11.9097 10.557 12.2417 10.396 12.6787 10.396C13.1067 10.396 13.4377 10.557 13.6837 10.88C13.8557 11.117 13.9407 11.477 13.9407 11.981V12.959H13.9377ZM9.88666 13.803V11.801C9.88666 11.384 9.76266 11.166 9.51666 11.166C9.37366 11.166 9.23166 11.232 9.08866 11.375V14.23C9.23166 14.372 9.37366 14.438 9.51666 14.438C9.76266 14.438 9.88666 14.23 9.88666 13.803Z" fill="white"/>
</svg>
